<svg width="804" height="503" viewBox="0 0 804 503" fill="none" xmlns="http://www.w3.org/2000/svg">
<path d="M402.209 40.9149C407.972 37.497 413.464 33.5856 419.065 29.9087C434.219 19.96 449.227 9.64651 464.567 0C473.051 5.24275 481.29 10.9997 489.702 16.3817L549.096 54.3472C567.864 66.6486 586.801 78.6909 605.902 90.4697C606.116 102.414 605.827 114.405 605.892 126.358L606 254.003C591.993 262.269 578.368 271.073 564.596 279.716L505.788 316.737C494.181 324.132 482.732 331.865 470.944 338.965C469.305 339.952 467.341 341.457 465.413 341.62C460.855 338.844 456.468 335.684 452.037 332.709L419.556 311.017C413.904 307.32 408.268 303.445 402.394 300.111C392.714 305.852 383.39 312.297 373.987 318.477C362.082 326.301 350.123 333.988 338.339 342L249.518 285.629L220.691 267.447C213.242 262.75 205.881 257.948 198.112 253.79C197.864 235.699 198.105 217.566 198.108 199.472L198.099 90.5264C212.599 82.1732 226.565 72.6465 240.591 63.5194L305.887 21.3544C317.003 14.2558 328.041 6.91881 339.378 0.183004C340.505 0.109544 341.6 0.960138 342.508 1.52462C352.901 7.98785 362.914 15.2372 373.134 21.9949C382.762 28.3602 392.752 34.3182 402.209 40.9149ZM433.309 60.8458L479.667 90.6334L479.665 203.301C479.644 218.891 479.875 234.498 479.719 250.084C468.938 257.303 457.922 264.236 447.041 271.309C442.317 274.38 437.172 277.266 432.748 280.729C438.081 284.045 443.269 287.59 448.542 290.999C453.971 294.509 459.526 297.908 464.821 301.613C471.001 297.995 477.146 294.317 483.254 290.58C504.864 276.872 526.582 263.335 548.406 249.97C556.544 244.927 564.521 239.608 572.667 234.587C572.188 210.136 572.567 185.593 572.583 161.133L572.612 129.485C572.611 123.068 572.445 116.612 572.727 110.202C567.092 105.792 560.373 102.127 554.333 98.279L517.369 74.7266C504.893 66.7356 492.364 58.825 479.785 50.9963C475.27 48.1745 469.234 43.7128 464.652 41.4967C454.127 47.8401 443.731 54.3362 433.309 60.8458ZM446.248 232.248C445.293 226.578 445.937 218.94 446.152 213.13C426.41 213.346 406.651 213.168 386.907 213.167C377.535 213.166 368.025 212.859 358.667 213.306C357.894 213.973 357.964 214.642 357.879 215.655C357.441 220.856 357.776 226.541 357.966 231.757C362.577 235.232 367.548 238.205 372.378 241.359C382.313 247.846 392.344 254.243 402.191 260.858L428.639 243.568C434.554 239.863 440.331 235.944 446.248 232.248ZM358.257 152.163C356.962 158.829 358.162 170.473 357.928 177.868C358.493 178.1 358.844 178.081 359.447 178.024L421.278 178.127C429.467 178.124 437.789 177.754 445.959 178.01C446.319 173.643 446.703 155.743 445.982 151.973C444.991 151.72 444.138 151.778 443.133 151.841C424.071 152.055 404.99 151.901 385.926 151.903C376.852 151.903 367.264 151.287 358.257 152.163ZM446.149 107.148C441.218 103.09 432.229 98.3196 426.584 94.7652C422.047 91.9202 417.524 89.0527 413.016 86.1626C409.617 83.9813 406.046 81.2163 402.289 79.7625C387.3 88.5906 373.052 98.7707 357.952 107.378C357.921 110.51 357.928 113.642 357.973 116.774C372.709 116.597 387.484 116.85 402.226 116.859C416.79 116.845 431.766 117.355 446.282 116.781C445.932 113.506 446.263 110.401 446.149 107.148ZM340.506 41.1333C313.615 57.2811 287.386 74.6254 260.883 91.4047C254.603 95.3812 248.449 99.5421 242.22 103.595C238.908 105.749 235.527 108.173 231.965 109.891L231.991 193.72C231.98 207.377 232.407 221.191 231.961 234.834C236.664 237.122 240.997 240.423 245.42 243.209L266.183 256.089L307.108 281.877C311.672 284.803 316.514 287.486 320.956 290.577C323.975 292.568 327.109 294.352 330.171 296.273C332.979 298.037 335.729 299.98 338.688 301.484C349.593 294.9 360.658 288.119 371.047 280.746C355.547 270.43 340.239 259.647 324.359 249.931C325.115 245.054 324.62 239.447 324.625 234.479L324.642 204.295C324.657 166.359 324.253 128.367 324.729 90.4362C340.264 80.5564 355.33 69.8383 371.087 60.3245C361.087 53.7865 350.872 47.0688 340.506 41.1333Z" fill="black"/>
<path d="M105.609 485V417.8H118.473L147.081 465.224H140.265L168.393 417.8H181.161L181.353 485H166.761L166.665 440.168H169.353L146.889 477.896H139.881L116.937 440.168H120.201V485H105.609ZM229.936 486.152C224.624 486.152 219.696 485.288 215.152 483.56C210.672 481.832 206.768 479.4 203.44 476.264C200.176 473.128 197.616 469.448 195.76 465.224C193.968 461 193.072 456.392 193.072 451.4C193.072 446.408 193.968 441.8 195.76 437.576C197.616 433.352 200.208 429.672 203.536 426.536C206.864 423.4 210.768 420.968 215.248 419.24C219.728 417.512 224.592 416.648 229.84 416.648C235.152 416.648 240.016 417.512 244.432 419.24C248.912 420.968 252.784 423.4 256.048 426.536C259.376 429.672 261.968 433.352 263.824 437.576C265.68 441.736 266.608 446.344 266.608 451.4C266.608 456.392 265.68 461.032 263.824 465.32C261.968 469.544 259.376 473.224 256.048 476.36C252.784 479.432 248.912 481.832 244.432 483.56C240.016 485.288 235.184 486.152 229.936 486.152ZM229.84 472.904C232.848 472.904 235.6 472.392 238.096 471.368C240.656 470.344 242.896 468.872 244.816 466.952C246.736 465.032 248.208 462.76 249.232 460.136C250.32 457.512 250.864 454.6 250.864 451.4C250.864 448.2 250.32 445.288 249.232 442.664C248.208 440.04 246.736 437.768 244.816 435.848C242.96 433.928 240.752 432.456 238.192 431.432C235.632 430.408 232.848 429.896 229.84 429.896C226.832 429.896 224.048 430.408 221.488 431.432C218.992 432.456 216.784 433.928 214.864 435.848C212.944 437.768 211.44 440.04 210.352 442.664C209.328 445.288 208.816 448.2 208.816 451.4C208.816 454.536 209.328 457.448 210.352 460.136C211.44 462.76 212.912 465.032 214.768 466.952C216.688 468.872 218.928 470.344 221.488 471.368C224.048 472.392 226.832 472.904 229.84 472.904ZM278.296 485V417.8H291.16L330.808 466.184H324.568V417.8H339.928V485H327.16L287.416 436.616H293.656V485H278.296ZM369.747 469.64L368.883 451.688L401.043 417.8H418.323L389.331 449L380.691 458.216L369.747 469.64ZM355.827 485V417.8H371.283V485H355.827ZM401.811 485L377.907 455.72L388.083 444.68L419.955 485H401.811ZM455.3 486.152C450.116 486.152 445.284 485.32 440.804 483.656C436.388 481.928 432.548 479.496 429.284 476.36C426.02 473.224 423.46 469.544 421.604 465.32C419.812 461.096 418.916 456.456 418.916 451.4C418.916 446.344 419.812 441.704 421.604 437.48C423.46 433.256 426.02 429.576 429.284 426.44C432.612 423.304 436.484 420.904 440.9 419.24C445.316 417.512 450.148 416.648 455.396 416.648C461.22 416.648 466.468 417.672 471.14 419.72C475.876 421.704 479.844 424.648 483.044 428.552L473.06 437.768C470.756 435.144 468.196 433.192 465.38 431.912C462.564 430.568 459.492 429.896 456.164 429.896C453.028 429.896 450.148 430.408 447.524 431.432C444.9 432.456 442.628 433.928 440.708 435.848C438.788 437.768 437.284 440.04 436.196 442.664C435.172 445.288 434.66 448.2 434.66 451.4C434.66 454.6 435.172 457.512 436.196 460.136C437.284 462.76 438.788 465.032 440.708 466.952C442.628 468.872 444.9 470.344 447.524 471.368C450.148 472.392 453.028 472.904 456.164 472.904C459.492 472.904 462.564 472.264 465.38 470.984C468.196 469.64 470.756 467.624 473.06 464.936L483.044 474.152C479.844 478.056 475.876 481.032 471.14 483.08C466.468 485.128 461.188 486.152 455.3 486.152ZM522.249 486.152C516.937 486.152 512.009 485.288 507.465 483.56C502.985 481.832 499.081 479.4 495.753 476.264C492.489 473.128 489.929 469.448 488.073 465.224C486.281 461 485.385 456.392 485.385 451.4C485.385 446.408 486.281 441.8 488.073 437.576C489.929 433.352 492.521 429.672 495.849 426.536C499.177 423.4 503.081 420.968 507.561 419.24C512.041 417.512 516.905 416.648 522.153 416.648C527.465 416.648 532.329 417.512 536.745 419.24C541.225 420.968 545.097 423.4 548.361 426.536C551.689 429.672 554.281 433.352 556.137 437.576C557.993 441.736 558.921 446.344 558.921 451.4C558.921 456.392 557.993 461.032 556.137 465.32C554.281 469.544 551.689 473.224 548.361 476.36C545.097 479.432 541.225 481.832 536.745 483.56C532.329 485.288 527.497 486.152 522.249 486.152ZM522.153 472.904C525.161 472.904 527.913 472.392 530.409 471.368C532.969 470.344 535.209 468.872 537.129 466.952C539.049 465.032 540.521 462.76 541.545 460.136C542.633 457.512 543.177 454.6 543.177 451.4C543.177 448.2 542.633 445.288 541.545 442.664C540.521 440.04 539.049 437.768 537.129 435.848C535.273 433.928 533.065 432.456 530.505 431.432C527.945 430.408 525.161 429.896 522.153 429.896C519.145 429.896 516.361 430.408 513.801 431.432C511.305 432.456 509.097 433.928 507.177 435.848C505.257 437.768 503.753 440.04 502.665 442.664C501.641 445.288 501.129 448.2 501.129 451.4C501.129 454.536 501.641 457.448 502.665 460.136C503.753 462.76 505.225 465.032 507.081 466.952C509.001 468.872 511.241 470.344 513.801 471.368C516.361 472.392 519.145 472.904 522.153 472.904ZM570.609 485V417.8H601.137C608.433 417.8 614.865 419.208 620.433 422.024C626.001 424.776 630.353 428.648 633.489 433.64C636.625 438.632 638.193 444.552 638.193 451.4C638.193 458.184 636.625 464.104 633.489 469.16C630.353 474.152 626.001 478.056 620.433 480.872C614.865 483.624 608.433 485 601.137 485H570.609ZM586.161 472.232H600.369C604.849 472.232 608.721 471.4 611.985 469.736C615.313 468.008 617.873 465.576 619.665 462.44C621.521 459.304 622.449 455.624 622.449 451.4C622.449 447.112 621.521 443.432 619.665 440.36C617.873 437.224 615.313 434.824 611.985 433.16C608.721 431.432 604.849 430.568 600.369 430.568H586.161V472.232ZM649.921 485V417.8H700.705V430.28H665.377V472.52H701.953V485H649.921ZM664.225 456.968V444.872H696.577V456.968H664.225Z" fill="black"/>
</svg>
