<svg width="634" height="531" viewBox="0 0 634 531" fill="none" xmlns="http://www.w3.org/2000/svg">
<path d="M316.845 63.494C325.786 58.19 334.307 52.12 342.998 46.414C366.51 30.975 389.796 14.97 413.598 0C426.761 8.136 439.545 17.07 452.596 25.422L544.75 84.339C573.87 103.429 603.253 122.117 632.889 140.396C633.221 158.932 632.772 177.54 632.873 196.09L633.041 394.176C611.308 407.004 590.168 420.667 568.799 434.079L477.555 491.53C459.546 503.006 441.782 515.007 423.492 526.025C420.949 527.557 417.901 529.892 414.91 530.145C407.838 525.838 401.032 520.934 394.157 516.316L343.759 482.654C334.991 476.917 326.245 470.903 317.132 465.73C302.113 474.639 287.645 484.641 273.056 494.231C254.585 506.373 236.029 518.301 217.746 530.735L79.9342 443.256L35.2063 415.04C23.6493 407.75 12.2283 400.299 0.174258 393.845C-0.211742 365.771 0.163262 337.631 0.168262 309.552L0.153262 140.484C22.6513 127.521 44.3213 112.737 66.0823 98.573L167.394 33.139C184.641 22.123 201.767 10.737 219.358 0.283997C221.106 0.169997 222.805 1.49 224.214 2.366C240.34 12.396 255.876 23.646 271.733 34.133C286.671 44.011 302.171 53.257 316.845 63.494ZM365.099 94.424L437.026 140.65L437.023 315.494C436.991 339.687 437.349 363.907 437.107 388.095C420.38 399.298 403.287 410.056 386.405 421.033C379.075 425.799 371.093 430.277 364.228 435.651C372.502 440.797 380.552 446.298 388.734 451.589C397.157 457.036 405.776 462.31 413.991 468.06C423.58 462.445 433.114 456.738 442.592 450.938C476.121 429.665 509.818 408.658 543.679 387.917C556.307 380.091 568.684 371.838 581.323 364.045C580.579 326.101 581.167 288.014 581.192 250.056L581.237 200.942C581.236 190.984 580.978 180.965 581.415 171.018C572.672 164.174 562.248 158.487 552.876 152.515L495.524 115.965C476.166 103.564 456.727 91.288 437.21 79.139C430.204 74.76 420.839 67.836 413.73 64.397C397.399 74.241 381.269 84.322 365.099 94.424ZM385.174 360.415C383.692 351.616 384.691 339.763 385.025 330.748C354.394 331.082 323.737 330.806 293.102 330.804C278.561 330.803 263.805 330.326 249.286 331.021C248.087 332.056 248.196 333.094 248.064 334.666C247.384 342.737 247.903 351.559 248.198 359.653C255.352 365.046 263.065 369.66 270.559 374.554C285.975 384.622 301.538 394.548 316.817 404.815L357.853 377.982C367.03 372.233 375.994 366.151 385.174 360.415ZM248.65 236.135C246.641 246.48 248.502 264.549 248.139 276.026C249.016 276.385 249.56 276.356 250.496 276.268L346.431 276.427C359.138 276.423 372.05 275.848 384.726 276.246C385.284 269.469 385.88 241.691 384.761 235.84C383.224 235.447 381.9 235.537 380.341 235.635C350.765 235.968 321.16 235.729 291.581 235.731C277.502 235.732 262.625 234.775 248.65 236.135ZM385.02 166.278C377.37 159.981 363.423 152.578 354.664 147.062C347.625 142.647 340.607 138.197 333.612 133.712C328.339 130.327 322.798 126.036 316.969 123.78C293.712 137.48 271.605 153.278 248.176 166.635C248.129 171.495 248.139 176.356 248.209 181.217C271.074 180.942 293.998 181.335 316.871 181.348C339.468 181.326 362.705 182.118 385.227 181.227C384.684 176.145 385.197 171.327 385.02 166.278ZM221.108 63.833C179.385 88.892 138.689 115.808 97.5683 141.847C87.8243 148.018 78.2753 154.475 68.6103 160.765C63.4723 164.108 58.2253 167.869 52.6993 170.535L52.7393 300.626C52.7223 321.82 53.3843 343.257 52.6933 364.428C59.9903 367.98 66.7132 373.102 73.5762 377.425L105.79 397.413L169.288 437.432C176.37 441.974 183.883 446.137 190.774 450.934C195.459 454.024 200.322 456.792 205.072 459.774C209.43 462.51 213.696 465.526 218.287 467.86C235.207 457.642 252.376 447.12 268.494 435.678C244.445 419.668 220.693 402.935 196.054 387.857C197.227 380.289 196.46 371.587 196.467 363.878L196.494 317.037C196.517 258.165 195.89 199.207 196.629 140.344C220.732 125.012 244.109 108.379 268.556 93.615C253.041 83.469 237.192 73.044 221.108 63.833Z" fill="black"/>
</svg>
