<svg width="1024" height="1024" viewBox="0 0 1024 1024" fill="none" xmlns="http://www.w3.org/2000/svg">
  <defs>
    <style>
      /* Light mode (default) */
      .favicon-bg { fill: #FFDE0A; }
      .favicon-fg { fill: #121212; }
      
      /* Dark mode */
      @media (prefers-color-scheme: dark) {
        .favicon-bg { fill: #121212; }
        .favicon-fg { fill: #FFDE0A; }
      }
    </style>
  </defs>
  
  <g clip-path="url(#clip0_favicon)">
    <!-- Background -->
    <path class="favicon-bg" d="M0 8C0 3.58172 3.58172 0 8 0H1016C1020.42 0 1024 3.58172 1024 8V1016C1024 1020.42 1020.42 1024 1016 1024H8C3.58172 1024 0 1020.42 0 1016V8Z"/>
    
    <!-- Logomark -->
    <path class="favicon-fg" d="M617.388 217C623.303 220 628.947 223.998 634.633 227.455L679.964 255.562L773.875 313.168C803.713 331.724 833.313 350.708 863.976 367.878L864.044 571.247L864.085 627.136C864.104 637.619 863.209 649.29 865 659.602C839.227 674.764 814.138 691.13 788.806 707.024C758.813 725.427 728.926 743.999 699.143 762.742L654.831 790.167C646.3 795.488 637.773 801.836 628.618 806C625.523 804.028 622.514 801.888 619.476 799.826C594.169 784.245 569.364 767.739 544.156 751.969C533.713 745.437 522.805 737.337 511.578 732.391C495.098 743.556 478.37 754.348 461.404 764.757C439.296 778.148 416.763 790.957 395.515 805.686C364.325 787.472 333.982 767.743 303.322 748.644C276.085 731.812 248.732 715.17 221.265 698.719C200.872 686.285 181.424 672.019 160.125 661.157C159.828 650.705 160.153 640.167 160.152 629.706L160.13 564.631L160.114 367.48C182.877 352.841 207.264 339.596 230.464 325.495C259.341 307.941 287.87 289.704 316.608 271.909C346.241 253.896 375.734 235.651 405.082 217.174C413.005 221.801 420.668 227.023 428.511 231.806C445.227 241.902 461.892 252.081 478.506 262.343C489.681 269.393 500.615 276.837 511.99 283.563C536.801 268.472 561.084 252.4 585.613 236.843C596.108 230.186 606.526 223.03 617.388 217Z"/>
    
    <!-- Inner details -->
    <path class="favicon-bg" d="M615.183 297.625C655.464 323.109 696.597 347.515 737.469 372.035C756.529 383.469 775.808 394.665 794.552 406.608C793.808 420.701 794.565 435.191 794.631 449.315L794.722 526.03L795.147 582.883C795.159 595.124 794.081 608.495 795.828 620.603C787.624 628.236 768.329 637.8 758.172 644.078L654.741 708.147C645.455 714.229 635.79 719.677 626.278 725.393C608.507 714.349 590.467 703.545 573.355 691.5C584.332 683.516 596.37 676.978 608.121 670.235C623.448 661.441 638.907 652.509 653.631 642.74C652.163 610.036 652.377 577.39 652.127 544.669L651.63 371.153C624.723 355.911 597.612 340.789 571.089 324.89C585.772 315.778 600.623 306.936 615.183 297.625Z"/>
    
    <path class="favicon-bg" d="M406.279 298.679C410.277 298.608 445.611 322.052 451.228 325.918C433.306 337.535 414.217 347.553 395.501 357.818C387.763 362.062 379.793 366.103 372.324 370.801C370.506 406.862 371.247 443.141 371.244 479.241L371.227 642.968C396.897 660.064 424.03 674.901 449.683 692.012C433.859 702.436 414.05 717.695 397.337 725.489C388.342 720.53 379.662 714.593 370.923 709.169C341.229 691.368 312.145 672.516 282.588 654.474L249.873 634.481C243.622 630.683 236.864 627.233 231.15 622.673L230.36 407.639C248.728 393.558 269.592 382.069 289.278 369.933L406.279 298.679Z"/>
    
    <path class="favicon-bg" d="M438.411 577.829L585.73 578.673C585.728 589.182 585.509 599.745 586.036 610.241C576.726 616.151 567.139 621.642 557.64 627.241C542.219 636.121 525.509 644.505 511.024 654.788C498.774 647.011 486.641 639.004 474.171 631.582C462.167 624.438 449.689 617.923 438.242 609.902C438.22 599.256 437.841 588.456 438.411 577.829Z"/>
    
    <path class="favicon-bg" d="M510.716 359.312C514.147 359.643 578.623 398.717 585.77 402.952L585.72 416.758L513.914 416.751L438.255 416.76L438.247 402.259C447.106 396.136 456.947 391.058 466.274 385.64C481.157 376.979 495.971 368.203 510.716 359.312Z"/>
    
    <path class="favicon-bg" d="M438.227 480.025L585.705 479.969L585.715 514.813L438.273 514.821L438.227 480.025Z"/>
  </g>
  
  <defs>
    <clipPath id="clip0_favicon">
      <rect width="1024" height="1024" rx="128" fill="white"/>
    </clipPath>
  </defs>
</svg>