<svg width="2056" height="531" viewBox="0 0 2056 531" fill="none" xmlns="http://www.w3.org/2000/svg">
<path d="M316.845 63.494C325.786 58.19 334.307 52.12 342.998 46.414C366.51 30.975 389.796 14.97 413.598 0C426.761 8.136 439.545 17.07 452.596 25.422L544.75 84.339C573.87 103.429 603.253 122.117 632.889 140.396C633.221 158.932 632.772 177.54 632.873 196.09L633.041 394.176C611.308 407.004 590.168 420.667 568.799 434.079L477.555 491.53C459.546 503.006 441.782 515.007 423.492 526.025C420.949 527.557 417.901 529.892 414.91 530.145C407.838 525.838 401.032 520.934 394.157 516.316L343.759 482.654C334.991 476.917 326.245 470.903 317.132 465.73C302.113 474.639 287.645 484.641 273.056 494.231C254.585 506.373 236.029 518.301 217.746 530.735L79.9342 443.256L35.2063 415.04C23.6493 407.75 12.2283 400.299 0.174258 393.845C-0.211742 365.771 0.163262 337.631 0.168262 309.552L0.153262 140.484C22.6513 127.521 44.3213 112.737 66.0823 98.573L167.394 33.139C184.641 22.123 201.767 10.737 219.358 0.283997C221.106 0.169997 222.805 1.49 224.214 2.366C240.34 12.396 255.876 23.646 271.733 34.133C286.671 44.011 302.171 53.257 316.845 63.494ZM365.099 94.424L437.026 140.65L437.023 315.494C436.991 339.687 437.349 363.907 437.107 388.095C420.38 399.298 403.287 410.056 386.405 421.033C379.075 425.799 371.093 430.277 364.228 435.651C372.502 440.797 380.552 446.298 388.734 451.589C397.157 457.036 405.776 462.31 413.991 468.06C423.58 462.445 433.114 456.738 442.592 450.938C476.121 429.665 509.818 408.658 543.679 387.917C556.307 380.091 568.684 371.838 581.323 364.045C580.579 326.101 581.167 288.014 581.192 250.056L581.237 200.942C581.236 190.984 580.978 180.965 581.415 171.018C572.672 164.174 562.248 158.487 552.876 152.515L495.524 115.965C476.166 103.564 456.727 91.288 437.21 79.139C430.204 74.76 420.839 67.836 413.73 64.397C397.399 74.241 381.269 84.322 365.099 94.424ZM385.174 360.415C383.692 351.616 384.691 339.763 385.025 330.748C354.394 331.082 323.737 330.806 293.102 330.804C278.561 330.803 263.805 330.326 249.286 331.021C248.087 332.056 248.196 333.094 248.064 334.666C247.384 342.737 247.903 351.559 248.198 359.653C255.352 365.046 263.065 369.66 270.559 374.554C285.975 384.622 301.538 394.548 316.817 404.815L357.853 377.982C367.03 372.233 375.994 366.151 385.174 360.415ZM248.65 236.135C246.641 246.48 248.502 264.549 248.139 276.026C249.016 276.385 249.56 276.356 250.496 276.268L346.431 276.427C359.138 276.423 372.05 275.848 384.726 276.246C385.284 269.469 385.88 241.691 384.761 235.84C383.224 235.447 381.9 235.537 380.341 235.635C350.765 235.968 321.16 235.729 291.581 235.731C277.502 235.732 262.625 234.775 248.65 236.135ZM385.02 166.278C377.37 159.981 363.423 152.578 354.664 147.062C347.625 142.647 340.607 138.197 333.612 133.712C328.339 130.327 322.798 126.036 316.969 123.78C293.712 137.48 271.605 153.278 248.176 166.635C248.129 171.495 248.139 176.356 248.209 181.217C271.074 180.942 293.998 181.335 316.871 181.348C339.468 181.326 362.705 182.118 385.227 181.227C384.684 176.145 385.197 171.327 385.02 166.278ZM221.108 63.833C179.385 88.892 138.689 115.808 97.5683 141.847C87.8243 148.018 78.2753 154.475 68.6103 160.765C63.4723 164.108 58.2253 167.869 52.6993 170.535L52.7393 300.626C52.7223 321.82 53.3843 343.257 52.6933 364.428C59.9903 367.98 66.7132 373.102 73.5762 377.425L105.79 397.413L169.288 437.432C176.37 441.974 183.883 446.137 190.774 450.934C195.459 454.024 200.322 456.792 205.072 459.774C209.43 462.51 213.696 465.526 218.287 467.86C235.207 457.642 252.376 447.12 268.494 435.678C244.445 419.668 220.693 402.935 196.054 387.857C197.227 380.289 196.46 371.587 196.467 363.878L196.494 317.037C196.517 258.165 195.89 199.207 196.629 140.344C220.732 125.012 244.109 108.379 268.556 93.615C253.041 83.469 237.192 73.044 221.108 63.833Z" fill="black"/>
<path d="M721.633 345.368V188.568H751.649L818.401 299.224H802.497L868.129 188.568H897.921L898.369 345.368H864.321L864.097 240.76H870.369L817.953 328.792H801.601L748.065 240.76H755.681V345.368H721.633ZM998.291 348.056C985.896 348.056 974.397 346.04 963.795 342.008C953.341 337.976 944.232 332.301 936.467 324.984C928.851 317.666 922.877 309.08 918.547 299.224C914.365 289.368 912.275 278.616 912.275 266.968C912.275 255.32 914.365 244.568 918.547 234.712C922.877 224.856 928.925 216.269 936.691 208.952C944.456 201.634 953.565 195.96 964.019 191.928C974.472 187.896 985.821 185.88 998.067 185.88C1010.46 185.88 1021.81 187.896 1032.11 191.928C1042.57 195.96 1051.6 201.634 1059.22 208.952C1066.98 216.269 1073.03 224.856 1077.36 234.712C1081.69 244.418 1083.86 255.17 1083.86 266.968C1083.86 278.616 1081.69 289.442 1077.36 299.448C1073.03 309.304 1066.98 317.89 1059.22 325.208C1051.6 332.376 1042.57 337.976 1032.11 342.008C1021.81 346.04 1010.54 348.056 998.291 348.056ZM998.067 317.144C1005.09 317.144 1011.51 315.949 1017.33 313.56C1023.3 311.17 1028.53 307.736 1033.01 303.256C1037.49 298.776 1040.93 293.474 1043.31 287.352C1045.85 281.229 1047.12 274.434 1047.12 266.968C1047.12 259.501 1045.85 252.706 1043.31 246.584C1040.93 240.461 1037.49 235.16 1033.01 230.68C1028.68 226.2 1023.53 222.765 1017.55 220.376C1011.58 217.986 1005.09 216.792 998.067 216.792C991.048 216.792 984.552 217.986 978.579 220.376C972.755 222.765 967.603 226.2 963.123 230.68C958.643 235.16 955.133 240.461 952.595 246.584C950.205 252.706 949.011 259.501 949.011 266.968C949.011 274.285 950.205 281.08 952.595 287.352C955.133 293.474 958.568 298.776 962.899 303.256C967.379 307.736 972.605 311.17 978.579 313.56C984.552 315.949 991.048 317.144 998.067 317.144ZM1097.69 345.368V188.568H1127.71L1220.22 301.464H1205.66V188.568H1241.5V345.368H1211.71L1118.97 232.472H1133.53V345.368H1097.69ZM1297.64 309.528L1295.62 267.64L1370.66 188.568H1410.98L1343.33 261.368L1323.17 282.872L1297.64 309.528ZM1265.16 345.368V188.568H1301.22V345.368H1265.16ZM1372.45 345.368L1316.68 277.048L1340.42 251.288L1414.79 345.368H1372.45ZM1483.82 348.056C1471.72 348.056 1460.45 346.114 1450 342.232C1439.69 338.2 1430.73 332.525 1423.12 325.208C1415.5 317.89 1409.53 309.304 1405.2 299.448C1401.01 289.592 1398.92 278.765 1398.92 266.968C1398.92 255.17 1401.01 244.344 1405.2 234.488C1409.53 224.632 1415.5 216.045 1423.12 208.728C1430.88 201.41 1439.92 195.81 1450.22 191.928C1460.52 187.896 1471.8 185.88 1484.04 185.88C1497.63 185.88 1509.88 188.269 1520.78 193.048C1531.83 197.677 1541.09 204.546 1548.56 213.656L1525.26 235.16C1519.88 229.037 1513.91 224.482 1507.34 221.496C1500.77 218.36 1493.6 216.792 1485.84 216.792C1478.52 216.792 1471.8 217.986 1465.68 220.376C1459.55 222.765 1454.25 226.2 1449.77 230.68C1445.29 235.16 1441.78 240.461 1439.24 246.584C1436.85 252.706 1435.66 259.501 1435.66 266.968C1435.66 274.434 1436.85 281.229 1439.24 287.352C1441.78 293.474 1445.29 298.776 1449.77 303.256C1454.25 307.736 1459.55 311.17 1465.68 313.56C1471.8 315.949 1478.52 317.144 1485.84 317.144C1493.6 317.144 1500.77 315.65 1507.34 312.664C1513.91 309.528 1519.88 304.824 1525.26 298.552L1548.56 320.056C1541.09 329.165 1531.83 336.109 1520.78 340.888C1509.88 345.666 1497.56 348.056 1483.82 348.056ZM1626.59 348.056C1614.2 348.056 1602.7 346.04 1592.1 342.008C1581.64 337.976 1572.53 332.301 1564.77 324.984C1557.15 317.666 1551.18 309.08 1546.85 299.224C1542.67 289.368 1540.58 278.616 1540.58 266.968C1540.58 255.32 1542.67 244.568 1546.85 234.712C1551.18 224.856 1557.23 216.269 1564.99 208.952C1572.76 201.634 1581.87 195.96 1592.32 191.928C1602.77 187.896 1614.12 185.88 1626.37 185.88C1638.76 185.88 1650.11 187.896 1660.42 191.928C1670.87 195.96 1679.91 201.634 1687.52 208.952C1695.29 216.269 1701.33 224.856 1705.67 234.712C1710 244.418 1712.16 255.17 1712.16 266.968C1712.16 278.616 1710 289.442 1705.67 299.448C1701.33 309.304 1695.29 317.89 1687.52 325.208C1679.91 332.376 1670.87 337.976 1660.42 342.008C1650.11 346.04 1638.84 348.056 1626.59 348.056ZM1626.37 317.144C1633.39 317.144 1639.81 315.949 1645.63 313.56C1651.61 311.17 1656.83 307.736 1661.31 303.256C1665.79 298.776 1669.23 293.474 1671.62 287.352C1674.16 281.229 1675.43 274.434 1675.43 266.968C1675.43 259.501 1674.16 252.706 1671.62 246.584C1669.23 240.461 1665.79 235.16 1661.31 230.68C1656.98 226.2 1651.83 222.765 1645.86 220.376C1639.88 217.986 1633.39 216.792 1626.37 216.792C1619.35 216.792 1612.85 217.986 1606.88 220.376C1601.06 222.765 1595.91 226.2 1591.43 230.68C1586.95 235.16 1583.44 240.461 1580.9 246.584C1578.51 252.706 1577.31 259.501 1577.31 266.968C1577.31 274.285 1578.51 281.08 1580.9 287.352C1583.44 293.474 1586.87 298.776 1591.2 303.256C1595.68 307.736 1600.91 311.17 1606.88 313.56C1612.85 315.949 1619.35 317.144 1626.37 317.144ZM1725.99 345.368V188.568H1797.23C1814.25 188.568 1829.26 191.853 1842.25 198.424C1855.24 204.845 1865.4 213.88 1872.71 225.528C1880.03 237.176 1883.69 250.989 1883.69 266.968C1883.69 282.797 1880.03 296.61 1872.71 308.408C1865.4 320.056 1855.24 329.165 1842.25 335.736C1829.26 342.157 1814.25 345.368 1797.23 345.368H1725.99ZM1762.28 315.576H1795.43C1805.89 315.576 1814.92 313.634 1822.54 309.752C1830.3 305.72 1836.28 300.045 1840.46 292.728C1844.79 285.41 1846.95 276.824 1846.95 266.968C1846.95 256.962 1844.79 248.376 1840.46 241.208C1836.28 233.89 1830.3 228.29 1822.54 224.408C1814.92 220.376 1805.89 218.36 1795.43 218.36H1762.28V315.576ZM1897.62 345.368V188.568H2016.11V217.688H1933.68V316.248H2019.02V345.368H1897.62ZM1930.99 279.96V251.736H2006.48V279.96H1930.99Z" fill="black"/>
</svg>
